# Blender v2.93.0 OBJ File: 'hummer.blend'
# www.blender.org
mtllib hummer_sk.mtl
o encaixe_cabo_baixo
v 0.528912 -1.064978 -0.263595
v 0.531615 -1.070175 0.002616
v 0.779469 -0.972858 0.001998
v 0.776766 -0.967661 -0.264213
v 0.609980 -1.271479 -0.268450
v 0.857834 -1.174161 -0.269067
v 0.612683 -1.276675 -0.002238
v 0.860537 -1.179358 -0.002856
v -0.402147 1.428378 -0.161080
v -0.400345 1.424913 0.016394
v -0.235109 1.489792 0.015982
v -0.236911 1.493256 -0.161492
v 0.586885 -1.090925 -0.220301
v 0.752121 -1.026047 -0.220712
v 0.588687 -1.094389 -0.042827
v 0.753923 -1.029511 -0.043238
v -0.718208 1.260785 -0.338702
v -0.712801 1.250393 0.193720
v 0.113379 1.574784 0.191662
v 0.107972 1.585177 -0.340760
v -0.523644 0.765185 -0.350352
v 0.302536 1.089576 -0.352410
v -0.518237 0.754792 0.182070
v 0.307943 1.079183 0.180012
v 0.074644 1.669509 -0.427555
v 0.081853 1.655652 0.282341
v 0.247089 1.720530 0.281929
v 0.239880 1.734387 -0.427967
v 0.334062 1.008708 -0.443089
v 0.499298 1.073586 -0.443500
v 0.341271 0.994851 0.266808
v 0.506507 1.059730 0.266396
v -0.916772 1.280239 -0.425086
v -0.909563 1.266382 0.284810
v -0.744327 1.331261 0.284399
v -0.751536 1.345118 -0.425498
v -0.657354 0.619439 -0.440619
v -0.492118 0.684317 -0.441031
v -0.650145 0.605581 0.269277
v -0.484909 0.670460 0.268866
v 0.008690 1.594904 -0.383952
v 0.014998 1.582779 0.237207
v 0.097616 1.615218 0.237002
v 0.091308 1.627343 -0.384158
v 0.235681 1.016703 -0.397543
v 0.318299 1.049142 -0.397749
v 0.241989 1.004578 0.223616
v 0.324607 1.037017 0.223410
v -0.776181 1.286732 -0.381997
v -0.769873 1.274607 0.239162
v -0.687255 1.307046 0.238957
v -0.693563 1.319171 -0.382203
v -0.549190 0.708531 -0.395589
v -0.466572 0.740970 -0.395794
v -0.542882 0.696406 0.225571
v -0.460264 0.728845 0.225365
v 0.256544 1.692221 -0.384569
v 0.262852 1.680096 0.236590
v 0.345470 1.712535 0.236384
v 0.339162 1.724660 -0.384775
v 0.483535 1.114021 -0.398161
v 0.566153 1.146460 -0.398367
v 0.489843 1.101896 0.222999
v 0.572461 1.134335 0.222793
v -0.982726 1.205634 -0.381483
v -0.976418 1.193509 0.239677
v -0.893800 1.225948 0.239471
v -0.900108 1.238073 -0.381688
v -0.755735 0.627433 -0.395074
v -0.673117 0.659873 -0.395280
v -0.749427 0.615309 0.226085
v -0.666809 0.647748 0.225880
v -0.460120 1.454324 -0.204375
v -0.457417 1.449128 0.061836
v -0.209563 1.546445 0.061219
v -0.212266 1.551642 -0.204993
v -0.122876 0.595283 -0.224568
v 0.124978 0.692601 -0.225186
v -0.120173 0.590087 0.041643
v 0.127681 0.687404 0.041026
vt 0.109375 0.371094
vt 0.121094 0.371094
vt 0.121094 0.382812
vt 0.109375 0.382812
vt 0.109375 0.371094
vt 0.119141 0.371094
vt 0.119141 0.382812
vt 0.109375 0.382812
vt 0.109375 0.371094
vt 0.121094 0.371094
vt 0.121094 0.382812
vt 0.109375 0.382812
vt 0.109375 0.371094
vt 0.119141 0.371094
vt 0.119141 0.382812
vt 0.109375 0.382812
vt 0.109375 0.373047
vt 0.121094 0.373047
vt 0.121094 0.382812
vt 0.109375 0.373047
vt 0.121094 0.373047
vt 0.121094 0.382812
vt 0.109375 0.382812
vt 0.203125 0.914062
vt 0.210938 0.914062
vt 0.210938 0.921875
vt 0.203125 0.921875
vt 0.421875 0.906250
vt 0.546875 0.906250
vt 0.546875 0.914062
vt 0.421875 0.914062
vt 0.328125 0.945312
vt 0.335938 0.945312
vt 0.335938 0.953125
vt 0.328125 0.953125
vt 0.445312 0.890625
vt 0.570312 0.890625
vt 0.570312 0.898438
vt 0.445312 0.898438
vt 0.335938 0.593750
vt 0.328125 0.593750
vt 0.328125 0.468750
vt 0.335938 0.468750
vt 0.054688 0.437500
vt 0.046875 0.437500
vt 0.046875 0.562500
vt 0.054688 0.562500
vt 0.367188 0.484375
vt 0.390625 0.484375
vt 0.390625 0.523438
vt 0.367188 0.523438
vt 0.492188 0.687500
vt 0.515625 0.687500
vt 0.515625 0.726562
vt 0.492188 0.726562
vt 0.492188 0.593750
vt 0.515625 0.593750
vt 0.515625 0.632812
vt 0.492188 0.632812
vt 0.492188 0.546875
vt 0.515625 0.546875
vt 0.515625 0.585938
vt 0.492188 0.585938
vt 0.289062 0.484375
vt 0.265625 0.484375
vt 0.265625 0.460938
vt 0.289062 0.460938
vt 0.320312 0.460938
vt 0.296875 0.460938
vt 0.296875 0.484375
vt 0.320312 0.484375
vt 0.078125 0.750000
vt 0.109375 0.750000
vt 0.109375 0.757812
vt 0.078125 0.757812
vt 0.296875 0.773438
vt 0.328125 0.773438
vt 0.328125 0.781250
vt 0.296875 0.781250
vt 0.507812 0.500000
vt 0.539062 0.500000
vt 0.539062 0.507812
vt 0.507812 0.507812
vt 0.523438 0.718750
vt 0.554688 0.718750
vt 0.554688 0.726562
vt 0.523438 0.726562
vt 0.109375 0.796875
vt 0.078125 0.796875
vt 0.078125 0.765625
vt 0.109375 0.765625
vt 0.500000 0.500000
vt 0.468750 0.500000
vt 0.468750 0.531250
vt 0.500000 0.531250
vt 0.523438 0.703125
vt 0.554688 0.703125
vt 0.554688 0.710938
vt 0.523438 0.710938
vt 0.523438 0.687500
vt 0.554688 0.687500
vt 0.554688 0.695312
vt 0.523438 0.695312
vt 0.523438 0.625000
vt 0.554688 0.625000
vt 0.554688 0.632812
vt 0.523438 0.632812
vt 0.523438 0.609375
vt 0.554688 0.609375
vt 0.554688 0.617188
vt 0.523438 0.617188
vt 0.234375 0.523438
vt 0.203125 0.523438
vt 0.203125 0.492188
vt 0.234375 0.492188
vt 0.273438 0.492188
vt 0.242188 0.492188
vt 0.242188 0.523438
vt 0.273438 0.523438
vt 0.523438 0.593750
vt 0.554688 0.593750
vt 0.554688 0.601562
vt 0.523438 0.601562
vt 0.523438 0.578125
vt 0.554688 0.578125
vt 0.554688 0.585938
vt 0.523438 0.585938
vt 0.523438 0.562500
vt 0.554688 0.562500
vt 0.554688 0.570312
vt 0.523438 0.570312
vt 0.523438 0.546875
vt 0.554688 0.546875
vt 0.554688 0.554688
vt 0.523438 0.554688
vt 0.312500 0.523438
vt 0.281250 0.523438
vt 0.281250 0.492188
vt 0.312500 0.492188
vt 0.507812 0.640625
vt 0.476562 0.640625
vt 0.476562 0.671875
vt 0.507812 0.671875
vt 0.523438 0.484375
vt 0.554688 0.484375
vt 0.554688 0.492188
vt 0.523438 0.492188
vt 0.523438 0.468750
vt 0.554688 0.468750
vt 0.554688 0.476562
vt 0.523438 0.476562
vt 0.531250 0.992188
vt 0.562500 0.992188
vt 0.562500 1.000000
vt 0.531250 1.000000
vt 0.531250 0.976562
vt 0.562500 0.976562
vt 0.562500 0.984375
vt 0.531250 0.984375
vt 0.523438 1.000000
vt 0.492188 1.000000
vt 0.492188 0.968750
vt 0.523438 0.968750
vt 0.523438 0.929688
vt 0.492188 0.929688
vt 0.492188 0.960938
vt 0.523438 0.960938
vt 0.531250 0.960938
vt 0.562500 0.960938
vt 0.562500 0.968750
vt 0.531250 0.968750
vt 0.531250 0.945312
vt 0.562500 0.945312
vt 0.562500 0.953125
vt 0.531250 0.953125
vt 0.531250 0.929688
vt 0.562500 0.929688
vt 0.562500 0.937500
vt 0.531250 0.937500
vt 0.531250 0.875000
vt 0.562500 0.875000
vt 0.562500 0.882812
vt 0.531250 0.882812
vt 0.523438 0.882812
vt 0.492188 0.882812
vt 0.492188 0.851562
vt 0.523438 0.851562
vt 0.523438 0.812500
vt 0.492188 0.812500
vt 0.492188 0.843750
vt 0.523438 0.843750
vt 0.531250 0.859375
vt 0.562500 0.859375
vt 0.562500 0.867188
vt 0.531250 0.867188
vt 0.531250 0.843750
vt 0.562500 0.843750
vt 0.562500 0.851562
vt 0.531250 0.851562
vt 0.531250 0.828125
vt 0.562500 0.828125
vt 0.562500 0.835938
vt 0.531250 0.835938
vt 0.531250 0.812500
vt 0.562500 0.812500
vt 0.562500 0.820312
vt 0.531250 0.820312
vt 0.523438 0.804688
vt 0.492188 0.804688
vt 0.492188 0.773438
vt 0.523438 0.773438
vt 0.523438 0.734375
vt 0.492188 0.734375
vt 0.492188 0.765625
vt 0.523438 0.765625
vt 0.000000 0.386719
vt 0.011719 0.386719
vt 0.011719 0.398438
vt 0.000000 0.398438
vt 0.000000 0.386719
vt 0.040625 0.386719
vt 0.040625 0.398438
vt 0.000000 0.398438
vt 0.000000 0.386719
vt 0.011719 0.386719
vt 0.011719 0.398438
vt 0.000000 0.398438
vt 0.000000 0.386719
vt 0.040625 0.386719
vt 0.040625 0.398438
vt 0.000000 0.398438
vt 0.000000 0.357812
vt 0.011719 0.357812
vt 0.011719 0.398438
vt 0.000000 0.357812
vt 0.011719 0.357812
vt 0.011719 0.398438
vt 0.000000 0.398438
vn -0.3653 0.9306 0.0219
vn -0.0102 0.0195 -0.9998
vn 0.3653 -0.9306 -0.0219
vn 0.0102 -0.0195 0.9998
vn 0.9308 0.3655 -0.0023
vn -0.9308 -0.3655 0.0023
usemtl m_96c35023-c6aa-2e82-db26-f4b059ec12d7
s 1
f 1/1/1 2/2/1 3/3/1 4/4/1
f 5/5/2 1/6/2 4/7/2 6/8/2
f 7/9/3 5/10/3 6/11/3 8/12/3
f 2/13/4 7/14/4 8/15/4 3/16/4
f 8/17/5 6/18/5 4/19/5 3/16/5
f 2/20/6 1/21/6 5/22/6 7/23/6
f 9/24/1 10/25/1 11/26/1 12/27/1
f 13/28/2 9/29/2 12/30/2 14/31/2
f 15/32/3 13/33/3 14/34/3 16/35/3
f 10/36/4 15/37/4 16/38/4 11/39/4
f 16/40/5 14/41/5 12/42/5 11/43/5
f 10/44/6 9/45/6 13/46/6 15/47/6
f 17/48/1 18/49/1 19/50/1 20/51/1
f 21/52/2 17/53/2 20/54/2 22/55/2
f 23/56/3 21/57/3 22/58/3 24/59/3
f 18/60/4 23/61/4 24/62/4 19/63/4
f 24/64/5 22/65/5 20/66/5 19/67/5
f 18/68/6 17/69/6 21/70/6 23/71/6
f 25/72/1 26/73/1 27/74/1 28/75/1
f 29/76/2 25/77/2 28/78/2 30/79/2
f 31/80/3 29/81/3 30/82/3 32/83/3
f 26/84/4 31/85/4 32/86/4 27/87/4
f 32/88/5 30/89/5 28/90/5 27/91/5
f 26/92/6 25/93/6 29/94/6 31/95/6
f 33/96/1 34/97/1 35/98/1 36/99/1
f 37/100/2 33/101/2 36/102/2 38/103/2
f 39/104/3 37/105/3 38/106/3 40/107/3
f 34/108/4 39/109/4 40/110/4 35/111/4
f 40/112/5 38/113/5 36/114/5 35/115/5
f 34/116/6 33/117/6 37/118/6 39/119/6
f 41/120/1 42/121/1 43/122/1 44/123/1
f 45/124/2 41/125/2 44/126/2 46/127/2
f 47/128/3 45/129/3 46/130/3 48/131/3
f 42/132/4 47/133/4 48/134/4 43/135/4
f 48/136/5 46/137/5 44/138/5 43/139/5
f 42/140/6 41/141/6 45/142/6 47/143/6
f 49/144/1 50/145/1 51/146/1 52/147/1
f 53/148/2 49/149/2 52/150/2 54/151/2
f 55/152/3 53/153/3 54/154/3 56/155/3
f 50/156/4 55/157/4 56/158/4 51/159/4
f 56/160/5 54/161/5 52/162/5 51/163/5
f 50/164/6 49/165/6 53/166/6 55/167/6
f 57/168/1 58/169/1 59/170/1 60/171/1
f 61/172/2 57/173/2 60/174/2 62/175/2
f 63/176/3 61/177/3 62/178/3 64/179/3
f 58/180/4 63/181/4 64/182/4 59/183/4
f 64/184/5 62/185/5 60/186/5 59/187/5
f 58/188/6 57/189/6 61/190/6 63/191/6
f 65/192/1 66/193/1 67/194/1 68/195/1
f 69/196/2 65/197/2 68/198/2 70/199/2
f 71/200/3 69/201/3 70/202/3 72/203/3
f 66/204/4 71/205/4 72/206/4 67/207/4
f 72/208/5 70/209/5 68/210/5 67/211/5
f 66/212/6 65/213/6 69/214/6 71/215/6
f 73/216/1 74/217/1 75/218/1 76/219/1
f 77/220/2 73/221/2 76/222/2 78/223/2
f 79/224/3 77/225/3 78/226/3 80/227/3
f 74/228/4 79/229/4 80/230/4 75/231/4
f 80/232/5 78/233/5 76/234/5 75/231/5
f 74/235/6 73/236/6 77/237/6 79/238/6
